 <svg xmlns="http://www.w3.org/2000/svg" xmlns:xlink="http://www.w3.org/1999/xlink" xmlns:ev="http://www.w3.org/2001/xml-events" style="display:none">

                <g id="circle" viewBox="0 0 20 20" preserveAspectRatio="xMidYMid meet">
                <circle r="10" cx="10" cy="10"/>
                </g>

                <g id="recette" viewBox="0 0 32 27">
                <path fill="#FEFEFE" fill-rule="evenodd" stroke="#FFF" d="M26.433 10.14c.064-.001.24-.009.502-.052.301-.05.753-.157 1.202-.384.755-.398 1.628-1.094 1.646-2.951V5.88c-.011-1.5-.596-2.176-1.036-2.555-.62-.52-1.401-.71-1.812-.777-.319-.053-.512-.055-.52-.055h-3.37v7.649l3.388-.002zM5.854 26c-.303-.005-1.324-.063-2.386-.597-.747-.36-2.49-1.499-2.468-4.284V1.565h1.486v19.556c.01 1.501.596 2.175 1.034 2.55.613.52 1.4.712 1.815.782.314.052.506.054.518.054l12.355-.002c.062-.002.239-.008.501-.052.303-.05.757-.158 1.205-.385.755-.398 1.626-1.095 1.647-2.95V1h4.853c.394.01 1.366.086 2.389.596.695.335 2.268 1.358 2.449 3.773h.017v1.386c.021 2.782-1.719 3.924-2.468 4.286-1.02.51-1.993.587-2.364.596h-3.392v9.484c.022 2.783-1.72 3.923-2.47 4.283-1.06.533-2.082.59-2.369.596H5.854z"/>
                    </g>

                <g id="fav" viewBox="0 0 26 25">
                    <path fill="#FFF" d="M18.398 0c-1.955 0-3.912.787-5.397 2.362C11.514.787 9.561 0 7.605 0c-1.943 0-3.887.776-5.37 2.333-2.983 3.11-3.051 8.138.227 11.587C6.12 17.763 11.977 23.924 13.002 25c1.025-1.076 6.88-7.237 10.536-11.08 3.279-3.449 3.209-8.477.23-11.587C22.283.776 20.338 0 18.398 0m3.912 3.877c1.044 1.088 1.62 2.52 1.623 4.032.002 1.623-.657 3.21-1.855 4.471l-7.87 8.277L13 21.925c-2.232-2.349-6.29-6.618-9.076-9.545-1.2-1.26-1.86-2.848-1.858-4.47.002-1.512.581-2.943 1.628-4.037 1.045-1.096 2.433-1.698 3.91-1.698 1.485 0 2.881.61 3.93 1.72L13 5.445l1.467-1.55c1.047-1.11 2.443-1.72 3.93-1.72 1.475 0 2.863.602 3.912 1.702z"/>
                </g>

                <g id="backArrow" viewBox="0 0 26 26" preserveAspectRatio="xMidYMid meet">
                <path fill="#FFF" fill-rule="evenodd" d="M7.226 13l8.618-8.618 1.723 1.724-6.894 6.893 6.894 6.895-1.723 1.724L7.226 13z"/>
                </g>

                <g id="krupsLogo"  fill-rule="evenodd"  viewBox="0 0 146 34" preserveAspectRatio="xMidYMid meet">
                <path d="M17.693 1L6.318 15.182 6.318 1 0 1 0 34 6.318 34 6.318 18.683 6.409 18.683 17.737 34 26 34 12.502 16.555 25.457 1zM42.422 16.887H37.31l.01-10.685h5.138c2.817 0 5.065 2.39 5.065 5.342 0 2.953-2.284 5.343-5.1 5.343m11.595-5.707C54.017 5.56 49.683 1 44.314 1H31v33h6.319V18.68L48.74 34H57L46.465 20.779c4.099-1.194 7.552-4.925 7.552-9.599M80.753 22.641c0 3.586-2.802 6.494-6.253 6.494s-6.25-2.908-6.25-6.494V1H62v20.731C62 30.421 66.649 34 74.5 34 82.35 34 87 30.422 87 21.731V1h-6.249l.002 21.641zM107.947 16.887h-4.885l-.005-10.685 4.87.038c2.747 0 4.96 2.434 4.96 5.439 0 3.003-2.191 5.208-4.94 5.208M109.701 1H97v33h6.057l.027-12.64h6.6c5.146 0 9.316-4.556 9.316-10.18C119 5.56 114.845 1 109.701 1M132.544 9.749c0-3.58 2.725-4.568 4.837-4.568 2.154 0 4.536.572 6.472 1.466V1.105C141.61.304 139.49 0 136.852 0c-5.409 0-10.73 2.685-10.73 10.03 0 10.88 13.457 8.29 13.457 14.551 0 2.967-3.123 4.239-5.454 4.239-2.418 0-5.677-.689-8.125-1.763v5.416c2.996 1.032 5.134 1.527 8.477 1.527 6.2 0 11.523-2.731 11.523-9.937 0-11.019-13.456-8.616-13.456-14.314"/>
                </g>
                
                <g id="plusButton" class="plusMinus" fill-rule="evenodd"  viewBox="0 0 32 32" preserveAspectRatio="xMidYMid meet">
                    <circle  cx="16" cy="16" r="13.5" fill="white"/>
                    <circle class="userFIllColor" cx="16" cy="16" r="13" fill="#f38230"/>
                    <path  d="M14.9,17.1h-3.8V15h3.8v-3.8h2.1V15h3.8v2.1h-3.8v3.8h-2.1V17.1z" fill="white"/>
                </g>

                <g id="minusButton" class="plusMinus"  fill-rule="evenodd"  viewBox="0 0 32 32" preserveAspectRatio="xMidYMid meet">
                    <circle  cx="16" cy="16" r="13.5" fill="white"/>
                    <circle class="profileColor"  class="userFIllColor" cx="16" cy="16" r="13" fill="#f38230"/>
                    <rect x="12.2" y="15"  width="7.7" height="2.1" fill="white"/>
                </g>




                <g id="sizeM" fill="rgba(255,255,255,0.6)" viewBox="0 0 57 54">
                <path d="M43.085,19.825c-0.158-2.177-1.505-3.096-2.07-3.387c-0.836-0.442-1.621-0.527-2.029-0.538h-4.104v17.8
                    c-0.006,0.629-0.115,1.136-0.332,1.551c-0.273,0.521-0.666,0.788-0.969,0.959c-0.353,0.19-0.708,0.286-1.34,0.375L21.63,36.547
                    c-0.275-0.047-0.971-0.208-1.48-0.668c-0.379-0.346-0.815-0.905-0.822-2.171l-0.054-17.311H17.9v17.304
                    c-0.006,0.878,0.171,1.656,0.526,2.312c0.485,0.898,1.189,1.357,1.56,1.548c0.879,0.47,1.708,0.532,2.031,0.538h10.204
                    c0.241-0.005,1.099-0.057,1.984-0.531c0.379-0.193,1.088-0.652,1.576-1.553c0.357-0.66,0.534-1.438,0.526-2.307v-8.248h2.71
                    c0.312-0.009,1.132-0.079,1.984-0.533c0.378-0.193,1.084-0.652,1.571-1.555c0.356-0.657,0.533-1.434,0.526-2.312L43.085,19.825z
                    M42.173,21.066c-0.008,0.779-0.164,1.347-0.388,1.776c-0.313,0.597-0.762,0.934-1.182,1.17c-0.432,0.233-0.867,0.338-1.145,0.385
                    l-3.226,0.055v-7.537h2.786c0.871,0.119,1.59,0.319,2.17,0.838c0.41,0.376,0.975,1.04,0.985,2.543V21.066z"/>
                <path d="M34.293,22.224H19.982v11.574c0,0.626,0.149,1.086,0.458,1.407c0.308,0.32,0.753,0.476,1.36,0.476h10.596
                    c0.434,0,1.007-0.017,1.42-0.502c0.326-0.38,0.479-0.97,0.479-1.854L34.293,22.224z M31.773,33.262h-1.428V26.65h-0.024
                    l-2.375,6.612h-1.236l-2.376-6.612h-0.024v6.612h-1.428v-8.568h2.112l2.364,6.708h0.024l2.304-6.708h2.088V33.262z"/>
                </g>


                <g id="sizeL" fill="rgba(255,255,255,0.6)" viewBox="0 0 57 54">
                    <path d="M17.556,39.093h15.661c0.685-0.022,1.506,0,2.099-0.653c0.465-0.508,0.681-1.312,0.681-2.526l0.001-15.5H15v16.164
                        c0,0.847,0.209,1.464,0.639,1.887C16.069,38.887,16.696,39.093,17.556,39.093z M29.376,32.75v1.75h-6.173v-9.994h2.119v8.244
                        H29.376z"/>
                    <path d="M49.078,16.901c-0.229-2.995-2.18-4.258-3.003-4.66c-1.211-0.608-2.358-0.726-2.947-0.741h-5.958v24.942
                        c-0.01,0.908-0.177,1.645-0.512,2.249c-0.43,0.776-1.068,1.178-1.506,1.409c-0.556,0.286-1.116,0.42-1.489,0.481
                        c-0.316,0.055-0.532,0.062-0.605,0.064l-15.192,0.003c-0.025,0-0.258-0.005-0.636-0.067c-0.513-0.087-1.484-0.329-2.231-0.97
                        c-0.586-0.505-1.26-1.32-1.271-3.159V12.201H11.9v24.242c-0.009,1.212,0.248,2.285,0.765,3.191c0.703,1.232,1.723,1.86,2.261,2.122
                        c1.27,0.645,2.479,0.735,2.95,0.744h15.182c0.354-0.008,1.606-0.084,2.893-0.734c0.549-0.267,1.574-0.898,2.277-2.131
                        c0.519-0.904,0.776-1.977,0.767-3.181V24.69h4.176c0.457-0.013,1.653-0.11,2.891-0.736c0.548-0.267,1.572-0.899,2.275-2.132
                        c0.517-0.904,0.774-1.976,0.765-3.188L49.078,16.901z M43.774,22.77c-0.331,0.055-0.55,0.062-0.621,0.064l-4.159,0.003v-9.484
                        h4.141c0.021,0,0.258,0.004,0.64,0.069c0.406,0.066,1.438,0.294,2.227,0.964c0.586,0.509,1.261,1.329,1.274,3.167v1.08
                        c-0.009,0.902-0.176,1.637-0.511,2.246c-0.423,0.766-1.034,1.16-1.513,1.414C44.708,22.571,44.147,22.706,43.774,22.77z"/>
                </g>



                <g id="sizeXL" fill="rgba(255,255,255,0.6)" viewBox="0 0 57 54">
                    <path d="M55.471,13.321c-0.308-4.063-2.931-5.773-4.037-6.316C49.802,6.178,48.263,6.021,47.474,6h-8.008v33.793
                        c-0.015,1.23-0.24,2.227-0.69,3.047c-0.568,1.036-1.384,1.567-2.023,1.91c-0.745,0.386-1.498,0.567-2,0.651
                        c-0.429,0.074-0.72,0.084-0.815,0.088l-20.419,0.004c-0.003,0-0.324-0.002-0.854-0.092c-0.689-0.118-1.995-0.446-2.999-1.313
                        c-0.788-0.684-1.693-1.789-1.709-4.28V6.95H5.5v32.844c-0.013,1.643,0.333,3.096,1.027,4.322c0.946,1.67,2.317,2.522,3.041,2.877
                        c1.711,0.874,3.329,0.995,3.956,1.006h20.404c0.476-0.009,2.163-0.108,3.896-0.995c0.737-0.359,2.115-1.213,3.063-2.886
                        c0.696-1.227,1.042-2.678,1.028-4.311V23.87l5.61,0c0.612-0.016,2.216-0.146,3.89-0.996c0.735-0.361,2.109-1.217,3.057-2.889
                        c0.694-1.226,1.04-2.678,1.027-4.32L55.471,13.321z M53.047,14.2v1.464c-0.013,1.211-0.243,2.235-0.688,3.043
                        c-0.568,1.037-1.39,1.571-2.033,1.916c-0.731,0.377-1.484,0.56-1.984,0.646c-0.433,0.072-0.723,0.084-0.827,0.087l-5.599,0.003
                        V8.51h5.564c0.003,0,0.327,0.002,0.86,0.092c0.681,0.114,1.975,0.436,2.994,1.306C52.122,10.599,53.028,11.711,53.047,14.2z"/>
                    <path d="M9.667,18.075v21.901c0,1.146,0.281,1.982,0.858,2.555c0.577,0.573,1.42,0.852,2.577,0.852h21.05
                        c0.913-0.004,2.049-0.008,2.84-0.905c0.611-0.692,0.896-1.774,0.896-3.402v-21H9.667z M21.831,35.047l-1.641-2.944l-1.734,2.944
                        h-2.098l2.777-4.4l-2.643-4.236h2.156l1.541,2.812l1.583-2.812h2.086l-2.643,4.166l2.807,4.471H21.831z M31.197,35.047H25.08
                        v-8.636h1.805v7.083h4.312V35.047z"/>
                </g>



                <g id="force1"  viewBox="0 0 57 54">
                    <path id="a_2_" d="M29.523,15.61c-0.336-0.045-0.677-0.071-1.023-0.071c-0.277,0-0.549,0.022-0.82,0.051
                        c-4.791,0.51-8.564,5.429-8.564,11.411c0,5.539,3.234,10.172,7.517,11.232c0.531,0.132,1.081,0.199,1.64,0.215
                        c0.076,0.002,0.15,0.014,0.227,0.014c5.174,0,9.383-5.142,9.383-11.461C37.884,21.102,34.217,16.235,29.523,15.61z M20.616,27
                        c0-5.493,3.537-9.962,7.884-9.962c0.039,0,0.077,0.007,0.116,0.007c0.759,1.392,1.367,3.199,1.095,5.211
                        c-0.249,1.841-1.154,3.02-2.113,4.267c-0.971,1.264-1.976,2.571-2.126,4.505c-0.129,1.652,0.241,3.712,0.686,5.484
                        C22.951,35.25,20.616,31.463,20.616,27z M28.5,36.962c-0.23,0-0.457-0.019-0.682-0.044c-0.499-1.804-0.983-4.075-0.851-5.772
                        c0.117-1.49,0.906-2.518,1.821-3.708c0.988-1.286,2.108-2.744,2.41-4.98c0.26-1.925-0.137-3.659-0.753-5.101
                        c3.408,1.099,5.939,4.999,5.939,9.643C36.384,32.493,32.847,36.962,28.5,36.962z"/>
                </g>



                <g id="force2"  viewBox="0 0 57 54">
                    <path d="M19.388,15.61c-0.336-0.045-0.677-0.071-1.023-0.071c-0.277,0-0.549,0.022-0.82,0.051
                        C12.755,16.099,8.982,21.018,8.982,27c0,5.539,3.234,10.172,7.517,11.232c0.531,0.132,1.081,0.199,1.64,0.215
                        c0.076,0.002,0.15,0.014,0.227,0.014c5.174,0,9.383-5.142,9.383-11.461C27.749,21.102,24.083,16.235,19.388,15.61z M10.482,27
                        c0-5.493,3.537-9.962,7.884-9.962c0.039,0,0.077,0.007,0.116,0.007c0.759,1.392,1.367,3.199,1.095,5.211
                        c-0.249,1.841-1.154,3.02-2.113,4.267c-0.971,1.264-1.976,2.571-2.126,4.505c-0.129,1.652,0.241,3.712,0.686,5.484
                        C12.817,35.25,10.482,31.463,10.482,27z M18.366,36.962c-0.23,0-0.457-0.019-0.682-0.044c-0.499-1.804-0.983-4.075-0.851-5.772
                        c0.117-1.49,0.906-2.518,1.821-3.708c0.988-1.286,2.108-2.744,2.41-4.98c0.26-1.925-0.137-3.659-0.753-5.101
                        c3.408,1.099,5.939,4.999,5.939,9.643C26.249,32.493,22.712,36.962,18.366,36.962z"/>
                        <path d="M39.657,15.61c-0.336-0.045-0.677-0.071-1.023-0.071c-0.277,0-0.549,0.022-0.82,0.051
                        c-4.791,0.51-8.564,5.429-8.564,11.411c0,5.539,3.234,10.172,7.517,11.232c0.531,0.132,1.081,0.199,1.64,0.215
                        c0.076,0.002,0.15,0.014,0.227,0.014c5.174,0,9.383-5.142,9.383-11.461C48.018,21.102,44.352,16.235,39.657,15.61z M30.751,27
                        c0-5.493,3.537-9.962,7.884-9.962c0.039,0,0.077,0.007,0.116,0.007c0.759,1.392,1.367,3.199,1.095,5.211
                        c-0.249,1.841-1.154,3.02-2.113,4.267c-0.971,1.264-1.976,2.571-2.126,4.505c-0.129,1.652,0.241,3.712,0.686,5.484
                        C33.086,35.25,30.751,31.463,30.751,27z M38.635,36.962c-0.23,0-0.457-0.019-0.682-0.044c-0.499-1.804-0.983-4.075-0.851-5.772
                        c0.117-1.49,0.906-2.518,1.821-3.708c0.988-1.286,2.108-2.744,2.41-4.98c0.26-1.925-0.137-3.659-0.753-5.101
                        c3.408,1.099,5.939,4.999,5.939,9.643C46.518,32.493,42.981,36.962,38.635,36.962z"/>
                </g>

                <g id="force3" viewBox="0 0 57 54">
                        <path d="M10.756,15.61c-0.336-0.045-0.677-0.071-1.023-0.071c-0.277,0-0.549,0.022-0.82,0.051
                        C4.122,16.099,0.349,21.018,0.349,27c0,5.539,3.234,10.172,7.517,11.232c0.531,0.132,1.081,0.199,1.64,0.215
                        c0.076,0.002,0.15,0.014,0.227,0.014c5.174,0,9.383-5.142,9.383-11.461C19.116,21.102,15.45,16.235,10.756,15.61z M7.391,36.513
                        C4.184,35.25,1.849,31.463,1.849,27c0-5.493,3.537-9.962,7.884-9.962c0.039,0,0.077,0.007,0.116,0.007
                        c0.759,1.392,1.367,3.199,1.095,5.211c-0.249,1.841-1.154,3.02-2.113,4.267c-0.971,1.264-1.976,2.571-2.126,4.505
                        C6.576,32.681,6.945,34.741,7.391,36.513z M9.733,36.962c-0.23,0-0.457-0.019-0.682-0.044c-0.499-1.804-0.983-4.075-0.851-5.772
                        c0.117-1.49,0.906-2.518,1.821-3.708c0.988-1.286,2.108-2.744,2.41-4.98c0.26-1.925-0.137-3.659-0.753-5.101
                        c3.408,1.099,5.939,4.999,5.939,9.643C17.616,32.493,14.08,36.962,9.733,36.962z"/>
    
                        <path d="M48.29,15.61c-0.336-0.045-0.677-0.071-1.023-0.071c-0.277,0-0.549,0.022-0.82,0.051
                            c-4.791,0.51-8.564,5.429-8.564,11.411c0,5.539,3.234,10.172,7.517,11.232c0.531,0.132,1.081,0.199,1.64,0.215
                            c0.076,0.002,0.15,0.014,0.227,0.014c5.174,0,9.383-5.142,9.383-11.461C56.651,21.102,52.984,16.235,48.29,15.61z
                            M44.925,36.513c-3.207-1.263-5.542-5.05-5.542-9.513c0-5.493,3.537-9.962,7.884-9.962c0.039,0,0.077,0.007,0.116,0.007
                            c0.759,1.392,1.367,3.199,1.095,5.211c-0.249,1.841-1.154,3.02-2.113,4.267c-0.971,1.264-1.976,2.571-2.126,4.505
                            C44.11,32.681,44.48,34.741,44.925,36.513z M47.267,36.962c-0.23,0-0.457-0.019-0.682-0.044
                            c-0.499-1.804-0.983-4.075-0.851-5.772c0.117-1.49,0.906-2.518,1.821-3.708c0.988-1.286,2.108-2.744,2.41-4.98
                            c0.26-1.925-0.137-3.659-0.753-5.101c3.408,1.099,5.939,4.999,5.939,9.643C55.151,32.493,51.614,36.962,47.267,36.962z"/>
                        <path d="M29.523,15.61c-0.336-0.045-0.677-0.071-1.023-0.071c-0.277,0-0.549,0.022-0.82,0.051
                            c-4.791,0.51-8.564,5.429-8.564,11.411c0,5.539,3.234,10.172,7.517,11.232c0.531,0.132,1.081,0.199,1.64,0.215
                            c0.076,0.002,0.15,0.014,0.227,0.014c5.174,0,9.383-5.142,9.383-11.461C37.884,21.102,34.217,16.235,29.523,15.61z M20.616,27
                            c0-5.493,3.537-9.962,7.884-9.962c0.039,0,0.077,0.007,0.116,0.007c0.759,1.392,1.367,3.199,1.095,5.211
                            c-0.249,1.841-1.154,3.02-2.113,4.267c-0.971,1.264-1.976,2.571-2.126,4.505c-0.129,1.652,0.241,3.712,0.686,5.484
                            C22.951,35.25,20.616,31.463,20.616,27z M28.5,36.962c-0.23,0-0.457-0.019-0.682-0.044c-0.499-1.804-0.983-4.075-0.851-5.772
                            c0.117-1.49,0.906-2.518,1.821-3.708c0.988-1.286,2.108-2.744,2.41-4.98c0.26-1.925-0.137-3.659-0.753-5.101
                            c3.408,1.099,5.939,4.999,5.939,9.643C36.384,32.493,32.847,36.962,28.5,36.962z"/>
                </g>

                <g id="start" viewBox="0 0 64 64">
                    <path fill="none" stroke="#FFFFFF" stroke-width="1.5" stroke-miterlimit="10" d="M61.089,24.79
                        C58.431,14.033,49.967,5.569,39.21,2.911"/>
                    <path fill="none" stroke="#FFFFFF" stroke-width="1.5" stroke-miterlimit="10" d="M2.911,39.21
                        C5.569,49.967,14.033,58.431,24.79,61.089"/>
                    <path fill="none" stroke="#FFFFFF" stroke-width="1.5" stroke-miterlimit="10" d="M24.79,2.911
                        C14.033,5.569,5.569,14.033,2.911,24.79"/>
                    <path fill="none" stroke="#FFFFFF" stroke-width="1.5" stroke-miterlimit="10" d="M39.21,61.089
                        c10.757-2.658,19.221-11.122,21.879-21.879"/>
                    <path fill="none" stroke="#FFFFFF" stroke-width="1.5" stroke-miterlimit="10" d="M39.21,38.247"/>
                    <path fill="none" stroke="#FFFFFF" stroke-width="1.5" stroke-miterlimit="10" d="M24.79,20.865
                        C21.144,23.231,18.727,27.33,18.727,32c0,7.331,5.943,13.273,13.273,13.273S45.273,39.331,45.273,32
                        c0-4.67-2.417-8.769-6.064-11.135"/>
                    <line fill="none" stroke="#FFFFFF" stroke-width="1.5" stroke-miterlimit="10" x1="32" y1="30.069" x2="32" y2="12.843"/>
                </g>

                <g id="userTwo" viewBox="0 0 64 64">
                    <circle fill="none" stroke="#FFFFFF" stroke-width="1.5" stroke-miterlimit="10" cx="32" cy="32" r="21.621"/>
                    <path fill="none" stroke="#FFFFFF" stroke-miterlimit="10" d="M46.36,39.518c-2.152-2.97-5.203-5.241-8.752-6.425
                        c-1.568,1.165-3.504,1.863-5.608,1.863c-2.104,0-4.04-0.698-5.608-1.863c-3.549,1.185-6.6,3.456-8.752,6.425"/>
                    <circle fill="none" stroke="#FFFFFF" stroke-miterlimit="10" cx="32" cy="25.534" r="6.756"/>
                    <path fill="#FFFFFF" d="M29.595,44.89c1.863-1.563,3.116-2.665,3.116-3.603c0-0.629-0.391-0.973-1.073-0.973
                        c-0.518,0-0.94,0.318-1.308,0.659l-0.809-0.813c0.675-0.682,1.327-1.029,2.322-1.029c1.369,0,2.299,0.819,2.299,2.072
                        c0,1.095-1.125,2.261-2.386,3.359c0.373-0.038,0.844-0.073,1.181-0.073h1.541v1.266h-4.884V44.89z"/>
                </g>

                <g id="userOne" viewBox="0 0 64 64">
                    <circle fill="none" stroke="#FFFFFF" stroke-width="1.5" stroke-miterlimit="10" cx="32" cy="32" r="21.621"/>
                    <path fill="none" stroke="#FFFFFF" stroke-miterlimit="10" d="M46.36,39.518c-2.152-2.97-5.203-5.241-8.752-6.425
                        c-1.568,1.165-3.504,1.863-5.608,1.863c-2.104,0-4.04-0.698-5.608-1.863c-3.549,1.185-6.6,3.456-8.752,6.425"/>
                    <circle fill="none" stroke="#FFFFFF" stroke-miterlimit="10" cx="32" cy="25.534" r="6.756"/>
                    <path fill="#FFFFFF" d="M32.492,45.935h-1.301v-4.908c-0.477,0.444-1.037,0.773-1.683,0.987v-1.182
                        c0.34-0.111,0.709-0.322,1.107-0.633s0.672-0.673,0.82-1.087h1.056V45.935z"/>
                </g>

                <g id="home" viewBox="0 0 64 64">
                    <circle fill="none" stroke="#FFFFFF" stroke-width="1.5" stroke-miterlimit="10" cx="32" cy="32" r="21.621"/>
                    <polygon fill="none" stroke="#FFFFFF" stroke-width="1.5" stroke-miterlimit="10" points="42.119,39.874 21.881,39.874 
                        21.881,29.3 32,20.126 42.119,29.3 	"/>
                </g>





            

                </svg>